<svg xmlns="http://www.w3.org/2000/svg" width="600" height="400" viewBox="0 0 600 400"><rect width="100%" height="100%" fill="#ddd"/><path fill="#666" d="M137.125 183.76q-4.1 0-6.35 3.08t-2.25 8.59q0 11.46 8.6 11.46 3.61 0 8.75-1.8v6.09q-4.22 1.76-9.43 1.76-7.47 0-11.43-4.54-3.96-4.53-3.96-13.02 0-5.34 1.94-9.36 1.95-4.02 5.59-6.16 3.65-2.15 8.54-2.15 5 0 10.04 2.42l-2.35 5.9q-1.92-.91-3.87-1.59-1.94-.68-3.82-.68Zm21.17 15.56q0 3.89 1.28 5.88 1.27 2 4.16 2 2.86 0 4.11-1.98 1.25-1.98 1.25-5.9 0-3.89-1.26-5.83-1.27-1.95-4.15-1.95-2.86 0-4.13 1.93-1.26 1.94-1.26 5.85Zm18.12 0q0 6.4-3.38 10.01-3.37 3.61-9.4 3.61-3.77 0-6.65-1.65-2.89-1.66-4.43-4.75-1.55-3.09-1.55-7.22 0-6.42 3.35-9.98 3.35-3.57 9.42-3.57 3.78 0 6.66 1.65 2.88 1.64 4.43 4.71 1.55 3.07 1.55 7.19Zm14.2 13.62q-4.62 0-7.26-3.59-2.63-3.58-2.63-9.93 0-6.45 2.68-10.05 2.69-3.6 7.4-3.6 4.94 0 7.54 3.85h.24q-.54-2.93-.54-5.23V176h7.17v36.47h-5.48l-1.39-3.4h-.3q-2.44 3.87-7.43 3.87Zm2.51-5.7q2.74 0 4.02-1.59 1.27-1.59 1.39-5.41v-.78q0-4.22-1.3-6.04-1.3-1.83-4.23-1.83-2.39 0-3.72 2.02-1.32 2.03-1.32 5.9 0 3.87 1.34 5.8 1.33 1.93 3.82 1.93Zm19.26-27.75q0-3.49 3.89-3.49t3.89 3.49q0 1.67-.97 2.59-.97.93-2.92.93-3.89 0-3.89-3.52Zm7.46 6.78v26.2h-7.15v-26.2h7.15Zm31.68 9.11v17.09h-7.15v-15.3q0-2.84-1-4.26-1.01-1.42-3.21-1.42-3 0-4.34 2.01-1.34 2-1.34 6.64v12.33h-7.14v-26.2h5.46l.96 3.35h.4q1.19-1.9 3.29-2.87 2.1-.98 4.77-.98 4.57 0 6.94 2.48 2.36 2.47 2.36 7.13Zm21.03-9.11h9.14v3.63l-4.1 1.05q1.12 1.76 1.12 3.94 0 4.22-2.94 6.58-2.94 2.35-8.17 2.35l-1.29-.07-1.05-.12q-1.1.85-1.1 1.88 0 1.55 3.93 1.55h4.46q4.31 0 6.57 1.85 2.26 1.85 2.26 5.44 0 4.59-3.83 7.12-3.83 2.53-11 2.53-5.49 0-8.38-1.91-2.9-1.91-2.9-5.35 0-2.37 1.48-3.97 1.48-1.59 4.34-2.27-1.11-.47-1.93-1.53-.82-1.07-.82-2.27 0-1.5.87-2.49.87-1 2.51-1.96-2.06-.89-3.27-2.86-1.21-1.97-1.21-4.64 0-4.29 2.79-6.63 2.79-2.35 7.97-2.35 1.1 0 2.61.2 1.51.2 1.94.3Zm-11.09 29.9q0 1.48 1.42 2.32 1.42.85 3.97.85 3.84 0 6.02-1.06 2.18-1.05 2.18-2.88 0-1.48-1.29-2.04-1.28-.56-3.98-.56h-3.7q-1.97 0-3.3.92-1.32.93-1.32 2.45Zm2.6-21.33q0 2.14.97 3.38.98 1.24 2.97 1.24 2.01 0 2.95-1.24.94-1.24.94-3.38 0-4.73-3.89-4.73-3.94 0-3.94 4.73Zm26.06-16.64 7.11 14.11 7.14-14.11h7.83l-11.36 20.93v13.34h-7.22v-13.1l-11.37-21.17h7.87Zm36.68 12.66q-2.27 0-3.56 1.44t-1.47 4.09h10.03q-.05-2.65-1.39-4.09-1.33-1.44-3.61-1.44Zm1.01 22.08q-6.33 0-9.89-3.49-3.56-3.5-3.56-9.89 0-6.59 3.29-10.19 3.29-3.6 9.11-3.6 5.55 0 8.65 3.17 3.09 3.16 3.09 8.74v3.47h-16.9q.12 3.05 1.81 4.76 1.68 1.71 4.73 1.71 2.37 0 4.48-.49 2.11-.5 4.4-1.57v5.53q-1.87.93-4 1.39-2.14.46-5.21.46Zm27.54-5.7q1.88 0 4.5-.82v5.32q-2.67 1.2-6.56 1.2-4.29 0-6.25-2.17-1.95-2.17-1.95-6.5v-12.64h-3.43v-3.02l3.94-2.39 2.06-5.53h4.57v5.58h7.34v5.36h-7.34v12.64q0 1.52.86 2.25.85.72 2.26.72Zm8.79 1.88q0-1.97 1.05-2.98 1.06-1.01 3.08-1.01 1.94 0 3.01 1.04 1.06 1.03 1.06 2.95 0 1.85-1.07 2.92-1.08 1.06-3 1.06-1.97 0-3.05-1.04-1.08-1.04-1.08-2.94Zm29.81-25.36q-4.1 0-6.35 3.08t-2.25 8.59q0 11.46 8.6 11.46 3.61 0 8.74-1.8v6.09q-4.21 1.76-9.42 1.76-7.47 0-11.43-4.54-3.97-4.53-3.97-13.02 0-5.34 1.95-9.36t5.59-6.16q3.64-2.15 8.54-2.15 4.99 0 10.03 2.42l-2.34 5.9q-1.92-.91-3.87-1.59-1.94-.68-3.82-.68Zm21.17 15.56q0 3.89 1.27 5.88 1.28 2 4.16 2 2.86 0 4.12-1.98 1.25-1.98 1.25-5.9 0-3.89-1.26-5.83-1.27-1.95-4.15-1.95-2.86 0-4.13 1.93-1.26 1.94-1.26 5.85Zm18.11 0q0 6.4-3.37 10.01-3.38 3.61-9.4 3.61-3.77 0-6.66-1.65-2.88-1.66-4.43-4.75-1.54-3.09-1.54-7.22 0-6.42 3.35-9.98 3.35-3.57 9.42-3.57 3.77 0 6.66 1.65 2.88 1.64 4.43 4.71 1.54 3.07 1.54 7.19Zm29.37 0v13.15h-7.15v-15.3q0-2.84-.95-4.26t-2.98-1.42q-2.75 0-3.99 2.02-1.24 2.01-1.24 6.63v12.33h-7.15v-26.2h5.46l.96 3.35h.4q1.06-1.81 3.05-2.83 1.99-1.02 4.57-1.02 5.88 0 7.97 3.85h.63q1.05-1.83 3.1-2.84 2.06-1.01 4.63-1.01 4.46 0 6.74 2.29 2.29 2.28 2.29 7.32v17.09h-7.17v-15.3q0-2.84-.95-4.26t-2.99-1.42q-2.63 0-3.93 1.88-1.3 1.87-1.3 5.95Z"/></svg>